<svg xmlns="http://www.w3.org/2000/svg" width="640" height="346" viewBox="0 0 640 346" font-family="-apple-system,Segoe UI,Helvetica,Arial,sans-serif" font-size="13">
<text x="16" y="26" font-size="15" font-weight="600" fill="#8b949e">Sector performance · 2026-09-15</text>
<line x1="370.0" y1="38" x2="370.0" y2="334" stroke="#8b949e" stroke-opacity="0.5"/>
<text x="180" y="60" text-anchor="end" fill="#8b949e">Energy</text>
<rect x="370.0" y="48" width="180.0" height="18" rx="3" fill="#2da44e"/>
<text x="628" y="60" text-anchor="end" fill="#2da44e" font-weight="600">+2.17%</text>
<text x="180" y="86" text-anchor="end" fill="#8b949e">Materials</text>
<rect x="370.0" y="74" width="39.8" height="18" rx="3" fill="#2da44e"/>
<text x="628" y="86" text-anchor="end" fill="#2da44e" font-weight="600">+0.48%</text>
<text x="180" y="112" text-anchor="end" fill="#8b949e">Health Care</text>
<rect x="365.9" y="100" width="4.1" height="18" rx="3" fill="#cf222e"/>
<text x="628" y="112" text-anchor="end" fill="#cf222e" font-weight="600">-0.05%</text>
<text x="180" y="138" text-anchor="end" fill="#8b949e">Real Estate</text>
<rect x="360.0" y="126" width="10.0" height="18" rx="3" fill="#cf222e"/>
<text x="628" y="138" text-anchor="end" fill="#cf222e" font-weight="600">-0.12%</text>
<text x="180" y="164" text-anchor="end" fill="#8b949e">Technology</text>
<rect x="345.9" y="152" width="24.1" height="18" rx="3" fill="#cf222e"/>
<text x="628" y="164" text-anchor="end" fill="#cf222e" font-weight="600">-0.29%</text>
<text x="180" y="190" text-anchor="end" fill="#8b949e">Financials</text>
<rect x="343.5" y="178" width="26.5" height="18" rx="3" fill="#cf222e"/>
<text x="628" y="190" text-anchor="end" fill="#cf222e" font-weight="600">-0.32%</text>
<text x="180" y="216" text-anchor="end" fill="#8b949e">Industrials</text>
<rect x="316.9" y="204" width="53.1" height="18" rx="3" fill="#cf222e"/>
<text x="628" y="216" text-anchor="end" fill="#cf222e" font-weight="600">-0.64%</text>
<text x="180" y="242" text-anchor="end" fill="#8b949e">Consumer Staples</text>
<rect x="302.0" y="230" width="68.0" height="18" rx="3" fill="#cf222e"/>
<text x="628" y="242" text-anchor="end" fill="#cf222e" font-weight="600">-0.82%</text>
<text x="180" y="268" text-anchor="end" fill="#8b949e">Communication Services</text>
<rect x="295.3" y="256" width="74.7" height="18" rx="3" fill="#cf222e"/>
<text x="628" y="268" text-anchor="end" fill="#cf222e" font-weight="600">-0.90%</text>
<text x="180" y="294" text-anchor="end" fill="#8b949e">Utilities</text>
<rect x="270.5" y="282" width="99.5" height="18" rx="3" fill="#cf222e"/>
<text x="628" y="294" text-anchor="end" fill="#cf222e" font-weight="600">-1.20%</text>
<text x="180" y="320" text-anchor="end" fill="#8b949e">Consumer Discretionary</text>
<rect x="224.8" y="308" width="145.2" height="18" rx="3" fill="#cf222e"/>
<text x="628" y="320" text-anchor="end" fill="#cf222e" font-weight="600">-1.75%</text>
</svg>
