<svg xmlns="http://www.w3.org/2000/svg" width="640" height="346" viewBox="0 0 640 346" font-family="-apple-system,Segoe UI,Helvetica,Arial,sans-serif" font-size="13">
<text x="16" y="26" font-size="15" font-weight="600" fill="#8b949e">Sector performance · week of 2026-09-14</text>
<line x1="370.0" y1="38" x2="370.0" y2="334" stroke="#8b949e" stroke-opacity="0.5"/>
<text x="180" y="60" text-anchor="end" fill="#8b949e">Health Care</text>
<rect x="370.0" y="48" width="108.4" height="18" rx="3" fill="#2da44e"/>
<text x="628" y="60" text-anchor="end" fill="#2da44e" font-weight="600">+1.83%</text>
<text x="180" y="86" text-anchor="end" fill="#8b949e">Technology</text>
<rect x="370.0" y="74" width="61.0" height="18" rx="3" fill="#2da44e"/>
<text x="628" y="86" text-anchor="end" fill="#2da44e" font-weight="600">+1.03%</text>
<text x="180" y="112" text-anchor="end" fill="#8b949e">Consumer Staples</text>
<rect x="328.6" y="100" width="41.4" height="18" rx="3" fill="#cf222e"/>
<text x="628" y="112" text-anchor="end" fill="#cf222e" font-weight="600">-0.70%</text>
<text x="180" y="138" text-anchor="end" fill="#8b949e">Energy</text>
<rect x="294.8" y="126" width="75.2" height="18" rx="3" fill="#cf222e"/>
<text x="628" y="138" text-anchor="end" fill="#cf222e" font-weight="600">-1.27%</text>
<text x="180" y="164" text-anchor="end" fill="#8b949e">Industrials</text>
<rect x="280.0" y="152" width="90.0" height="18" rx="3" fill="#cf222e"/>
<text x="628" y="164" text-anchor="end" fill="#cf222e" font-weight="600">-1.52%</text>
<text x="180" y="190" text-anchor="end" fill="#8b949e">Communication Services</text>
<rect x="275.9" y="178" width="94.1" height="18" rx="3" fill="#cf222e"/>
<text x="628" y="190" text-anchor="end" fill="#cf222e" font-weight="600">-1.59%</text>
<text x="180" y="216" text-anchor="end" fill="#8b949e">Consumer Discretionary</text>
<rect x="268.8" y="204" width="101.2" height="18" rx="3" fill="#cf222e"/>
<text x="628" y="216" text-anchor="end" fill="#cf222e" font-weight="600">-1.71%</text>
<text x="180" y="242" text-anchor="end" fill="#8b949e">Materials</text>
<rect x="258.7" y="230" width="111.3" height="18" rx="3" fill="#cf222e"/>
<text x="628" y="242" text-anchor="end" fill="#cf222e" font-weight="600">-1.88%</text>
<text x="180" y="268" text-anchor="end" fill="#8b949e">Real Estate</text>
<rect x="248.6" y="256" width="121.4" height="18" rx="3" fill="#cf222e"/>
<text x="628" y="268" text-anchor="end" fill="#cf222e" font-weight="600">-2.05%</text>
<text x="180" y="294" text-anchor="end" fill="#8b949e">Financials</text>
<rect x="226.1" y="282" width="143.9" height="18" rx="3" fill="#cf222e"/>
<text x="628" y="294" text-anchor="end" fill="#cf222e" font-weight="600">-2.43%</text>
<text x="180" y="320" text-anchor="end" fill="#8b949e">Utilities</text>
<rect x="190.0" y="308" width="180.0" height="18" rx="3" fill="#cf222e"/>
<text x="628" y="320" text-anchor="end" fill="#cf222e" font-weight="600">-3.04%</text>
</svg>
